<?xml version="1.0" standalone="no"?>
<!DOCTYPE svg PUBLIC "-//W3C//DTD SVG 20010904//EN"
 "http://www.w3.org/TR/2001/REC-SVG-20010904/DTD/svg10.dtd">
<svg version="1.0" xmlns="http://www.w3.org/2000/svg"
 width="500.000000pt" height="500.000000pt" viewBox="0 0 500.000000 500.000000"
 preserveAspectRatio="xMidYMid meet">
<metadata>
Created by potrace 1.14, written by Peter Selinger 2001-2017
</metadata>
<g transform="translate(0.000000,500.000000) scale(0.100000,-0.100000)"
fill="#000000" stroke="none">
<path d="M0 2500 l0 -2500 2500 0 2500 0 0 2500 0 2500 -2500 0 -2500 0 0
-2500z m2233 1143 c15 -56 112 -472 193 -828 12 -55 36 -158 52 -230 17 -71
42 -181 56 -243 14 -62 28 -116 30 -120 2 -4 14 -75 26 -157 12 -83 26 -154
31 -159 6 -6 9 -3 9 8 0 30 38 177 132 511 88 314 106 380 153 540 13 44 40
139 60 210 20 72 42 150 50 175 7 25 30 105 51 178 l38 132 121 0 121 0 37
-132 c19 -73 88 -322 152 -553 64 -231 123 -445 131 -475 8 -30 24 -86 36
-125 11 -38 44 -164 73 -280 37 -145 55 -202 59 -185 3 14 13 72 21 130 16
101 40 220 91 437 14 56 33 142 43 190 11 48 30 138 44 198 14 61 37 162 51
225 14 63 48 215 76 338 27 122 50 224 50 227 0 3 65 5 145 5 80 0 145 -4 145
-8 0 -5 -9 -44 -20 -88 -10 -43 -38 -155 -60 -249 -23 -93 -59 -244 -81 -335
-42 -174 -78 -321 -154 -635 -25 -104 -57 -235 -70 -290 -13 -55 -40 -167 -60
-250 -19 -82 -40 -166 -45 -185 -5 -19 -16 -60 -23 -90 l-13 -55 -131 -3 -130
-3 -21 73 c-11 40 -46 163 -77 273 -31 110 -65 229 -75 265 -26 88 -58 203
-76 270 -8 30 -23 84 -34 120 -10 36 -44 155 -75 265 -31 110 -67 238 -80 285
-13 47 -29 112 -34 144 -6 33 -13 61 -15 63 -2 2 -9 -27 -15 -64 -7 -37 -30
-131 -53 -208 -22 -77 -51 -176 -63 -220 -33 -114 -151 -515 -179 -610 -13
-44 -38 -127 -55 -185 -17 -58 -55 -186 -84 -285 l-53 -180 -130 -3 -130 -3
-33 138 c-18 76 -37 152 -42 168 -5 17 -25 95 -44 175 -19 80 -54 228 -79 330
-25 102 -61 253 -81 335 -20 83 -58 240 -85 350 -51 207 -106 438 -141 585
-11 47 -22 91 -24 98 -3 9 29 12 140 12 128 0 144 -2 148 -17z m-783 -1398 l0
-1395 -510 0 -510 0 0 1395 0 1395 510 0 510 0 0 -1395z"/>
</g>
</svg>
